<?xml version="1.0" encoding="UTF-8"?>
<svg id="Layer_1" data-name="Layer 1" xmlns="http://www.w3.org/2000/svg" viewBox="0 0 34.13 34.4">
  <defs>
    <style>
      .cls-1 {
        fill: #ffde00;
      }
    </style>
  </defs>
  <path class="cls-1" d="M17.82,6.03c.75.06,1.71-.01,1.98.96.29,1.06.02,4.1.06,5.4,0,.18-.03,1.19.03,1.24,1.65.04,3.32-.06,4.97,0s2.55-.18,2.72,1.82c.08,1,.24,3.47-1.08,3.74l-6.61.06c-.06.05-.02.34-.03.43-.18,1.83.3,4.53,0,6.21-.27,1.47-3.56,1.35-4.66,1.14-.42-.08-1-.66-1.08-1.08-.21-1.16-.03-3.86-.06-5.22-.01-.49.03-.99-.03-1.48-.25-.18-5.36.13-6.24,0-.76-.11-1.14-.68-1.27-1.39-.03-.18-.03-2.94,0-3.09.09-.55.67-1,1.17-1.14.81-.07,1.76.01,2.59,0,.45,0,3.75.08,3.83-.09l.06-6.73c.36-1.01,2.75-.84,3.64-.77Z"/>
</svg>