<?xml version="1.0" encoding="UTF-8"?>
<svg id="Layer_1" data-name="Layer 1" xmlns="http://www.w3.org/2000/svg" viewBox="0 0 34.13 34.4">
  <defs>
    <style>
      .cls-1 {
        fill: #fff;
      }
    </style>
  </defs>
  <path class="cls-1" d="M13.83,13.94c1.8-.29,2.05,3.15,3.01,3.96,1,.86,4.53,1.27,3.8,3.17-.3.79-3.15,1.64-3.87,2.23-.59.88-1.93,5.45-3.6,3.51-.56-.65-1.31-3.14-1.8-3.58-.66-.59-3.42-1.32-3.8-2.07-.99-1.96,3.11-2.43,3.87-3.37.63-.78,1.35-3.68,2.39-3.85Z"/>
  <path class="cls-1" d="M22.49,7.27c1.26-.2,1.43,2.19,2.09,2.76.7.6,3.16.89,2.65,2.21-.21.55-2.19,1.14-2.7,1.56-.41.62-1.34,3.8-2.51,2.44-.39-.46-.91-2.18-1.25-2.49-.46-.41-2.38-.92-2.65-1.44-.69-1.37,2.16-1.69,2.7-2.35.44-.55.94-2.56,1.67-2.68Z"/>
</svg>