<?xml version="1.0" encoding="UTF-8"?>
<svg id="Layer_1" data-name="Layer 1" xmlns="http://www.w3.org/2000/svg" viewBox="0 0 34.13 34.4">
  <defs>
    <style>
      .cls-1 {
        fill: #fff;
      }

      .cls-2 {
        fill: #e7edf2;
      }
    </style>
  </defs>
  <path class="cls-1" d="M22.69,11.8l4.09,4.16-10.86,10.86c-.85.23-.85-1.47-.74-1.96-1.63.58-1.99.06-1.62-1.56-.62.08-1.72.56-2-.3l11.13-11.2Z"/>
  <path class="cls-2" d="M26.21,8.42c.09-.02.52-.02.61,0,.26.06,3.29,3.07,3.35,3.35.24,1.07-1.5,2.04-2.06,2.81l-4.09-4.03c-.02-.15,1.99-2.09,2.2-2.13Z"/>
  <path class="cls-2" d="M11.12,23.91c.15-.01.92,2.5,1.35,2.77.27.17,2.53.51,2.54.64l-5.72,2.67,1.83-6.09Z"/>
  <path class="cls-2" d="M23.5,10.99c.45.51,4.05,3.74,4.09,4.03.04.24-.26.26-.37.44-.37-.59-4.09-3.8-4.09-4.09,0-.03.32-.3.37-.37Z"/>
</svg>