<?xml version="1.0" encoding="UTF-8"?>
<svg id="Layer_1" data-name="Layer 1" xmlns="http://www.w3.org/2000/svg" viewBox="0 0 34.13 34.4">
  <defs>
    <style>
      .cls-1 {
        fill: #fff;
      }
    </style>
  </defs>
  <path class="cls-1" d="M4.72,11.7c.57.06,1.26-.02,1.85,0,.18.05.13.18.14.32.35,5.59-.13,11.47.21,17.09.09.16.28.42.46.46.43.11,2.49.05,3.13.07,4.85.14,9.74-.1,14.6,0l.68-.39.36-17.49c.63-.02,1.37,0,1.99-.07l-.14,16.35c-.17.67.03,1.36-.21,2.03-.27.73-1.42,1.53-2.17,1.64-5.72-.54-12.81.71-18.38,0-1.17-.15-2.29-1.1-2.46-2.31-.35-2.57-.11-6.62-.14-9.37s-.15-5.4-.07-8.01c0-.13-.07-.35.14-.32Z"/>
  <path class="cls-1" d="M29.79,10.34l-.53.5H3.62l-.68-.57c-.09-.89-.22-3.15-.07-3.95.09-.5.51-.82.96-.96h7.55c-.01-1.25.39-2.7,1.71-3.13.69-.22,5.36-.27,6.2-.14,1.64.24,2.2,1.8,2.14,3.28.3.21,6.31-.14,7.34,0,.42.06,1,.27,1.1.75.16.73,0,3.38-.07,4.24Z"/>
  <path class="cls-1" d="M23.74,15.68l-4.06,4.1c0,.09,1.13,1.08,1.28,1.25.54.58,2.17,2.09,2.49,2.6.14.22.2.33.21.61s-.02.45-.14.68c-.06.11-1.7,1.75-1.82,1.82-.33.19-.69.28-1.07.21-.67-.12-3.89-3.88-4.2-3.85l-3.85,3.7c-.74.8-2.91-1.39-3.17-1.89-.14-.26-.18-.53-.14-.82.11-.86,3.07-3.11,3.7-4.06.05-.07.28-.12.21-.32l-3.92-3.88c-.29-.47-.28-.84,0-1.32.08-.14,1.9-1.89,2.03-1.96.47-.24.86-.13,1.28.14.63.4,3.58,3.82,3.85,3.85,1.58-1.25,2.79-3.11,4.49-4.13.62-.2,2.82,2.15,2.88,2.46.06.27-.05.55-.07.82Z"/>
</svg>